PathFileType	4	(X/Y/Z)	C:\Users\WrightLab\Desktop\Jo\P2_Trial25.trc
DataRate	CameraRate	NumFrames	NumMarkers	Units	OrigDataRate	OrigDataStartFrame	OrigNumFrames
100.00	100.00	       47	19	mm	100.00	1	       529
Frame#	Time	Headset_Front			Headset_Back			Headset_Left			Headset_Right			Left_Shoulder			Right_Shoulder			Sternum			C7			Left Elbow			Right Elbow			Left Wrist			Right Wrist			Left ASIS			Right ASIS			S2			Left Knee			Right Knee			Left Ankle			Right Ankle			
		X1	Y1	Z1	X2	Y2	Z2	X3	Y3	Z3	X4	Y4	Z4	X5	Y5	Z5	X6	Y6	Z6	X7	Y7	Z7	X8	Y8	Z8	X9	Y9	Z9	X10	Y10	Z10	X11	Y11	Z11	X12	Y12	Z12	X13	Y13	Z13	X14	Y14	Z14	X15	Y15	Z15	X16	Y16	Z16	X17	Y17	Z17	X18	Y18	Z18	X19	Y19	Z19	

1	0.000																																		-277.87805	827.68805	-1314.79761	-7.28313	998.92914	-1326.90466							138.97351	424.80481	-1435.17627				116.94497	67.71186	-1438.14612				
2	0.010																																		-279.50159	827.58081	-1316.16248	-10.07224	999.35645	-1326.74072							138.44328	425.00528	-1435.24536				116.37138	67.09916	-1438.13806				
3	0.020																																		-281.93732	828.44659	-1317.09399	-13.26615	999.18835	-1323.45825							136.94884	424.79248	-1433.15295				116.18564	67.06283	-1437.99219				
4	0.030																																		-284.59131	829.13129	-1319.31384	-15.07603	997.51257	-1324.54126							135.39702	423.54840	-1430.54395				116.00823	67.03001	-1437.79456				
5	0.040																																		-288.88928	832.61493	-1309.72327	-19.21739	998.97516	-1319.60779							134.35573	424.14807	-1430.28748				115.92226	66.92323	-1437.74207				
6	0.050																																		-289.78351	830.05328	-1322.39160	-22.32220	997.92377	-1320.88452							132.44370	424.49243	-1428.78906				115.75754	66.86430	-1437.67578				
7	0.060																																		-292.35019	830.18317	-1325.79370	-26.06174	998.69366	-1317.38953							131.28587	424.69293	-1428.51074				115.71481	66.88824	-1437.72839				
8	0.070																																		-297.54211	834.18683	-1312.84546	-28.48947	998.06079	-1320.91394							129.58582	425.38583	-1427.05652				115.63865	67.01299	-1437.28296				
9	0.080																																		-300.34885	834.79431	-1314.66272	-32.09277	998.93695	-1316.40808							128.00674	425.04391	-1425.31628				114.96947	67.09011	-1436.09045				
10	0.090																																		-301.71475	831.73462	-1325.58936	-35.37808	998.08075	-1316.59570							126.46239	425.15366	-1423.00354				114.82430	67.11173	-1436.03394				
11	0.100																																		-304.47711	832.60187	-1323.43689	-38.67120	997.03308	-1316.17761							124.98161	425.37372	-1422.80579				114.09882	67.10714	-1435.04822				
12	0.110																																		-307.14755	830.76843	-1331.51245	-41.50419	996.67865	-1315.50781							122.06615	425.30563	-1419.62476				114.00174	67.19242	-1434.79382				
13	0.120																																		-311.56311	835.65430	-1317.59790	-44.84027	995.51190	-1312.89294							120.52168	424.85187	-1417.79919				113.37765	66.68185	-1433.97485				
14	0.130																																		-313.40549	835.55524	-1318.37976	-47.63488	996.16473	-1310.80164							118.74752	424.78925	-1416.19128				112.87695	67.07623	-1433.65198				
15	0.140																																		-317.21713	836.09021	-1319.51343	-50.81776	995.80023	-1311.52148							116.88762	424.53076	-1414.57422				112.33460	67.15534	-1432.80127				
16	0.150																																		-318.48596	832.35632	-1331.71838	-53.70938	995.84509	-1308.85352							114.70619	424.42651	-1412.61450				111.88501	67.09533	-1432.21985				
17	0.160																																		-322.41730	833.37183	-1330.81970	-56.85230	994.95026	-1307.34875							112.45242	424.99298	-1411.53101				111.54095	67.32081	-1431.95813				
18	0.170																																		-325.36374	832.30487	-1335.04321	-59.38741	992.94836	-1308.28442							111.38393	424.68646	-1411.10083				111.17458	67.60853	-1431.57178				
19	0.180																																		-328.84021	834.07703	-1331.61133	-62.90913	993.91864	-1303.36157							109.02033	424.13351	-1408.19885				111.17458	67.60853	-1431.57178				
20	0.190																																		-332.69299	836.68341	-1324.31628	-65.29372	992.67865	-1304.98242							106.21362	422.86597	-1404.60254				109.84323	66.74007	-1430.25635				
21	0.200																																		-336.65482	836.60571	-1325.19031	-68.80604	994.31226	-1301.46265							105.10012	423.67224	-1405.01270				109.84323	66.74007	-1430.25635				
22	0.210																																		-339.87457	832.60657	-1338.66553	-72.45113	991.74072	-1302.25159							102.83932	423.56580	-1402.58801				109.13670	67.28713	-1430.81360				
23	0.220																																		-344.46243	833.84100	-1336.17664	-75.97611	992.13245	-1299.51917							101.37565	424.27969	-1401.92468				108.99000	67.36661	-1430.74146				
24	0.230																																		-348.15076	836.22577	-1329.98755	-81.06701	992.11621	-1294.70471							98.83273	424.18732	-1400.78162				108.81377	67.86016	-1429.74561				
25	0.240																																		-351.86588	836.17169	-1331.48901	-84.07689	992.20056	-1294.21143							96.00811	423.71274	-1398.70044				107.10172	66.27223	-1427.49548				
26	0.250																																		-355.78867	833.21729	-1340.05090	-87.49100	991.49792	-1296.53015							92.94789	422.58722	-1395.55481				106.28437	66.41375	-1427.23645				
27	0.260																																		-359.39041	832.13025	-1343.78381	-92.41021	992.03729	-1290.60974							92.66226	422.98956	-1394.84631				105.51559	65.52323	-1426.49976				
28	0.270																																		-363.60446	835.28381	-1332.74597	-96.76441	989.50226	-1291.74487							88.89054	422.82788	-1391.47571				104.93142	65.62826	-1426.40149				
29	0.280																																		-367.68271	830.76001	-1344.09790	-100.81448	989.31830	-1288.67676							86.57880	422.71902	-1390.09497				104.60713	66.20434	-1425.33386				
30	0.290																																		-371.49725	834.16461	-1332.05432	-105.47007	989.78595	-1286.80420							84.90062	422.95135	-1389.29309				103.92421	65.78580	-1424.04443				
31	0.300																																		-375.72696	833.59332	-1332.06091	-110.96736	988.08606	-1282.86267							81.45795	422.74976	-1386.78186				102.97554	65.11452	-1422.67200				
32	0.310																																		-379.07971	833.12506	-1332.17456	-116.43046	987.59314	-1279.83496							79.64042	420.98169	-1383.02759				102.56450	65.39965	-1422.33459				
33	0.320																																		-384.30743	830.23706	-1341.39514	-120.61591	986.94977	-1277.73486							76.60490	421.26477	-1380.30078				101.76416	66.21242	-1421.39526				
34	0.330																																		-388.22723	832.87964	-1332.71167	-125.79865	984.80786	-1276.37134							75.10957	421.82892	-1380.58362				101.44412	66.52831	-1420.92114				
35	0.340																																		-392.10779	828.51788	-1343.73865	-130.41084	983.42218	-1276.55286							72.59595	421.34665	-1378.60632				100.22955	67.17859	-1420.96606				
36	0.350																																		-396.92661	831.65808	-1331.95984	-136.90985	983.38647	-1272.29773							69.28007	421.73914	-1376.39380				99.79083	66.52032	-1420.21545				
37	0.360																																		-401.56604	830.59943	-1331.01416	-142.30914	981.33148	-1267.77173							67.73488	420.00372	-1373.06299				99.02614	66.44136	-1418.39746				
38	0.370																																		-405.75726	826.26105	-1342.41516	-148.14197	981.73047	-1265.63281							63.75437	419.57446	-1369.20190				97.91344	67.09219	-1417.12366				
39	0.380																															62.22594	1010.08539	-1345.83789	-410.81036	829.99475	-1331.56274	-154.80586	980.40118	-1260.57483							61.57318	419.47687	-1368.12280				97.54937	67.86172	-1417.18506				
40	0.390																															56.60948	1009.68951	-1340.71851	-416.02869	829.15698	-1330.46826	-160.66191	978.58905	-1261.05652							59.41658	419.53592	-1366.75623				96.36176	66.64970	-1413.56885				
41	0.400																															50.44371	1008.41504	-1333.58582	-421.87238	824.54004	-1340.20349	-166.93675	978.36298	-1255.44702							55.98399	418.27652	-1362.84106				95.49793	66.36040	-1412.81677				
42	0.410																															45.72994	1008.07281	-1331.45886	-426.05753	823.79199	-1340.07898	-172.84497	975.92596	-1254.36743							53.61206	418.06265	-1360.07239				94.78981	65.77155	-1411.60962				
43	0.420																															38.78423	1007.72961	-1323.11206	-432.62912	822.92548	-1340.06995	-180.40352	976.95837	-1249.66516							50.19015	417.22836	-1356.71777				92.70545	65.64447	-1409.50391				
44	0.430																															33.74127	1006.01935	-1320.95642	-437.60715	822.08191	-1339.07849	-186.27675	974.94873	-1245.73340							47.07899	416.93628	-1353.59753				91.98262	65.94035	-1408.07690				
45	0.440																															26.76785	1005.51233	-1313.16052	-443.30377	825.18939	-1326.31824	-194.12843	974.92444	-1239.95313							44.33439	415.94116	-1350.86560				91.34384	65.48373	-1407.29065				
46	0.450																															21.84782	1004.10339	-1309.98279	-449.28268	824.27692	-1325.15784	-201.63428	973.62469	-1236.76526							41.25076	416.07629	-1348.87134				91.02494	65.93705	-1406.51123				
47	0.460																															14.98903	1002.81543	-1303.59668	-455.27463	824.20557	-1324.95776	-208.03516	972.88263	-1232.15369							37.47649	414.50949	-1345.11011				89.89947	65.19141	-1404.34570				
